<svg xmlns="http://www.w3.org/2000/svg" xmlns:xlink="http://www.w3.org/1999/xlink" width="2000" zoomAndPan="magnify" viewBox="0 0 1500 1499.999933" height="2000" preserveAspectRatio="xMidYMid meet" version="1.0"><path fill="#2036b3" d="M 965.8125 859.074219 C 975.519531 842.304688 976.402344 820.824219 965.8125 802.582031 L 916.683594 717.550781 L 867.554688 802.582031 C 856.960938 820.53125 857.84375 842.304688 867.554688 859.074219 C 872.261719 867.3125 879.320312 874.667969 888.441406 879.667969 C 897.265625 884.671875 906.972656 887.320312 916.683594 887.023438 C 926.390625 887.023438 936.097656 884.671875 944.925781 879.667969 C 954.042969 874.667969 961.105469 867.605469 965.8125 859.074219 Z M 534.238281 640.757812 C 524.53125 657.53125 523.648438 679.007812 534.238281 697.25 L 583.367188 782.28125 L 632.496094 697.25 C 642.792969 679.304688 642.207031 657.53125 632.496094 640.757812 C 627.789062 632.519531 620.730469 625.164062 611.609375 620.164062 C 602.785156 615.160156 593.078125 612.515625 583.367188 612.808594 C 573.660156 612.808594 563.953125 615.160156 555.125 620.164062 C 546.007812 625.164062 538.945312 632.226562 534.238281 640.757812 Z M 534.238281 640.757812 " fill-opacity="1" fill-rule="evenodd"/><path fill="#2f81ff" d="M 887.558594 768.746094 L 916.976562 717.847656 L 877.261719 648.996094 L 877.261719 648.703125 L 785.179688 489.527344 C 764.585938 453.925781 735.757812 424.210938 700.160156 403.613281 L 696.925781 401.847656 C 662.210938 382.429688 623.082031 372.722656 583.074219 372.722656 C 543.066406 372.722656 503.9375 382.429688 468.929688 401.847656 L 466.28125 403.320312 C 430.097656 424.210938 401.558594 453.925781 380.96875 489.527344 L 288.886719 648.703125 L 288.886719 648.996094 L 158.855469 874.375 C 143.265625 901.441406 152.679688 935.867188 179.742188 951.460938 C 206.808594 967.054688 241.226562 957.640625 256.820312 930.570312 L 388.320312 702.839844 L 478.636719 546.3125 C 489.226562 527.777344 503.9375 512.183594 522.472656 501.589844 L 524.53125 500.414062 C 542.183594 490.703125 562.480469 486.292969 582.78125 486.292969 C 603.371094 486.292969 623.378906 490.703125 641.324219 500.414062 L 643.089844 501.296875 C 661.917969 512.183594 676.625 527.777344 687.214844 546.3125 L 777.53125 702.839844 L 866.375 856.425781 C 858.140625 839.949219 857.84375 819.941406 867.847656 802.875 Z M 612.492188 731.085938 L 632.203125 696.957031 C 642.207031 679.890625 641.910156 659.589844 633.675781 643.40625 L 722.519531 796.992188 L 812.835938 953.519531 C 823.425781 972.054688 838.132812 987.648438 856.960938 998.535156 L 858.726562 999.417969 C 876.671875 1009.421875 896.679688 1013.542969 917.269531 1013.542969 C 937.863281 1013.542969 957.867188 1009.128906 975.519531 999.417969 L 977.578125 998.242188 C 996.113281 987.648438 1010.824219 972.054688 1021.414062 953.519531 L 1111.730469 796.992188 L 1243.230469 569.261719 C 1258.824219 542.195312 1293.242188 532.777344 1320.308594 548.371094 C 1347.375 563.96875 1356.785156 598.390625 1341.195312 625.460938 L 1211.164062 850.835938 L 1211.164062 851.128906 L 1119.378906 1010.304688 C 1098.785156 1045.90625 1069.953125 1075.621094 1034.0625 1096.511719 L 1031.414062 1097.984375 C 996.40625 1117.695312 957.28125 1127.113281 917.269531 1127.113281 C 877.261719 1127.113281 838.132812 1117.402344 803.421875 1097.984375 L 800.183594 1096.21875 C 764.585938 1075.621094 735.757812 1045.90625 715.164062 1010.304688 L 623.378906 851.128906 L 623.378906 850.835938 L 583.664062 781.988281 Z M 1333.253906 429.210938 C 1333.253906 460.105469 1358.257812 485.113281 1389.148438 485.113281 C 1420.039062 485.113281 1445.042969 460.105469 1445.042969 429.210938 C 1445.042969 398.320312 1420.039062 373.308594 1389.148438 373.308594 C 1358.257812 373.015625 1333.253906 398.320312 1333.253906 429.210938 Z M 166.800781 1070.621094 C 166.800781 1039.726562 141.792969 1014.71875 110.902344 1014.71875 C 80.015625 1014.71875 55.007812 1039.726562 55.007812 1070.621094 C 55.007812 1101.515625 80.015625 1126.523438 110.902344 1126.523438 C 141.792969 1126.523438 166.800781 1101.515625 166.800781 1070.621094 Z M 166.800781 1070.621094 " fill-opacity="1" fill-rule="evenodd"/><path fill="#fe4eee" d="M 583.074219 781.988281 L 533.945312 696.957031 C 523.355469 679.007812 524.238281 657.234375 533.945312 640.464844 L 374.496094 916.449219 L 301.832031 1042.964844 C 286.238281 1070.03125 295.359375 1104.75 322.425781 1120.34375 C 349.488281 1135.9375 384.203125 1126.816406 399.796875 1099.75 L 472.164062 974.703125 Z M 916.976562 717.847656 L 966.105469 802.875 C 976.695312 820.824219 975.8125 842.597656 966.105469 859.367188 L 1125.554688 583.386719 L 1198.515625 457.164062 C 1214.105469 430.09375 1204.988281 395.375 1177.921875 379.78125 C 1150.855469 364.1875 1116.140625 373.308594 1100.550781 400.378906 L 1028.179688 525.421875 Z M 916.976562 717.847656 " fill-opacity="1" fill-rule="evenodd"/></svg>